HIERARCHY
ROOT Hips
{
    OFFSET 0.000000 0.000000 0.000000
    CHANNELS 6 Xposition Yposition Zposition Zrotation Xrotation Yrotation
    JOINT Spine
    {
        OFFSET -0.000000 0.081343 0.000000
        CHANNELS 3 Zrotation Xrotation Yrotation
        JOINT Spine1
        {
            OFFSET -0.000000 0.243280 0.000000
            CHANNELS 3 Zrotation Xrotation Yrotation
            JOINT Neck
            {
                OFFSET -0.000000 0.242281 0.022026
                CHANNELS 3 Zrotation Xrotation Yrotation
                JOINT Head
                {
                    OFFSET -0.000000 0.149025 -0.021289
                    CHANNELS 3 Zrotation Xrotation Yrotation
                    End Site
                    {
                        OFFSET -0.000000 0.198396 0.000000
                    }
                }
            }
            JOINT LeftShoulder
            {
                OFFSET 0.039707 0.224479 -0.002125
                CHANNELS 3 Zrotation Xrotation Yrotation
                JOINT LeftArm
                {
                    OFFSET 0.116942 0.000000 0.000000
                    CHANNELS 3 Zrotation Xrotation Yrotation
                    JOINT LeftForeArm
                    {
                        OFFSET 0.282002 0.000000 0.000000
                        CHANNELS 3 Zrotation Xrotation Yrotation
                        JOINT LeftHand
                        {
                            OFFSET 0.358743 0.000000 0.000000
                            CHANNELS 3 Zrotation Xrotation Yrotation
                            End Site
                            {
                                OFFSET 0.148797 0.000000 0.000000
                            }
                        }
                    }
                }
            }
            JOINT RightShoulder
            {
                OFFSET -0.039404 0.224479 -0.002125
                CHANNELS 3 Zrotation Xrotation Yrotation
                JOINT RightArm
                {
                    OFFSET -0.116942 0.000000 0.000000
                    CHANNELS 3 Zrotation Xrotation Yrotation
                    JOINT RightForeArm
                    {
                        OFFSET -0.282002 0.000000 0.000000
                        CHANNELS 3 Zrotation Xrotation Yrotation
                        JOINT RightHand
                        {
                            OFFSET -0.358743 0.000000 0.000000
                            CHANNELS 3 Zrotation Xrotation Yrotation
                            End Site
                            {
                                OFFSET -0.148797 0.000000 0.000000
                            }
                        }
                    }
                }
            }
        }
    }
    JOINT LeftUpLeg
    {
        OFFSET 0.099198 0.000000 0.000000
        CHANNELS 3 Zrotation Xrotation Yrotation
        JOINT LeftLeg
        {
            OFFSET -0.000000 -0.332973 0.000000
            CHANNELS 3 Zrotation Xrotation Yrotation
            JOINT LeftFoot
            {
                OFFSET -0.000000 -0.491254 0.000000
                CHANNELS 3 Zrotation Xrotation Yrotation
                JOINT LeftToeBase
                {
                    OFFSET -0.000000 -0.064479 0.148797
                    CHANNELS 3 Zrotation Xrotation Yrotation
                    End Site
                    {
                        OFFSET -0.000000 0.000000 0.039679
                    }
                }
            }
        }
    }
    JOINT RightUpLeg
    {
        OFFSET -0.099198 0.000000 0.000000
        CHANNELS 3 Zrotation Xrotation Yrotation
        JOINT RightLeg
        {
            OFFSET -0.000000 -0.332973 0.000000
            CHANNELS 3 Zrotation Xrotation Yrotation
            JOINT RightFoot
            {
                OFFSET -0.000000 -0.491254 0.000000
                CHANNELS 3 Zrotation Xrotation Yrotation
                JOINT RightToeBase
                {
                    OFFSET -0.000000 -0.064479 0.148797
                    CHANNELS 3 Zrotation Xrotation Yrotation
                    End Site
                    {
                        OFFSET -0.000000 0.000000 0.039679
                    }
                }
            }
        }
    }
}
MOTION
Frames:    5
Frame Time:    0.010000
0.705150    0.865267    -0.422200    9.678116    5.770677    125.210701    -1.358087    3.583726    2.896732    -2.329317    10.247358    1.160110    0.643703    11.983137    1.278830    0.176442    -2.491077    1.334296    -17.146618    32.043247    3.573676    -29.905003    29.726952    -44.938187    -13.312549    -42.629913    -51.269524    17.147308    -43.412941    34.413322    7.895342    28.182802    12.067138    29.664915    28.821514    44.403259    15.927555    -14.326320    61.093914    15.591587    -25.261253    -15.702421    2.861221    -12.250214    4.438601    -6.511931    29.697016    -1.362135    6.922978    -12.759683    21.724352    0.000000    0.000000    0.000000    -9.822556    -0.632336    -1.528846    1.571113    59.216770    -12.091048    10.941598    0.167366    13.541568    0.000000    0.000000    0.000000    
0.711507    0.867908    -0.428643    9.878045    5.964294    125.578880    -1.582382    3.669165    3.039589    -1.683355    10.496978    1.150938    -0.175699    11.776231    1.232271    0.623608    -2.212758    1.390856    -17.662811    31.711031    3.652001    -29.360819    30.097252    -44.853577    -13.763340    -42.384602    -51.724098    16.329529    -43.612701    34.025661    7.422335    27.831673    12.104980    29.755255    28.209934    44.261959    17.361017    -13.073772    61.228497    13.410813    -24.665352    -16.028717    2.601648    -10.912174    3.409127    -6.794330    28.812790    -0.706443    6.870806    -12.906669    21.668186    0.000000    0.000000    0.000000    -9.647806    -2.589887    -1.652096    4.039623    59.816795    -7.691509    7.868024    1.635948    4.803394    0.000000    0.000000    0.000000    
0.717544    0.870612    -0.435434    10.043229    6.182449    126.092789    -1.518309    3.786527    3.063639    -1.716467    10.580138    1.163334    -0.400287    11.712353    1.142357    0.945311    -1.903263    1.356504    -17.624657    31.637289    3.668218    -29.326632    29.961805    -44.793217    -14.433520    -41.823635    -52.049934    15.632049    -43.554096    33.526917    7.303002    27.641333    12.167992    21.248335    40.546497    49.566784    6.418617    -25.964987    62.212643    15.717732    -31.258135    -15.524388    2.318887    -8.754601    2.220048    -6.861023    28.811308    -0.270818    6.870806    -12.906669    21.668186    0.000000    0.000000    0.000000    -9.636138    -3.579238    -2.295406    3.969576    59.996708    -6.750623    7.443577    2.106988    3.734200    0.000000    0.000000    0.000000    
0.723720    0.873733    -0.442647    10.326447    6.549722    126.634544    -1.492826    3.982464    3.038508    -1.719081    10.840461    1.158526    -0.746522    12.117523    1.045498    1.439835    -2.381332    1.352141    -17.626272    31.575405    3.679467    -29.211361    29.941778    -44.806423    -15.004435    -41.488201    -52.407688    15.648919    -43.474617    33.517933    7.543580    26.013594    12.600962    27.840155    34.667786    44.507622    13.252928    -17.983736    62.366535    12.092930    -27.025362    -16.242714    1.733716    -7.793441    1.364622    -6.754646    26.947269    0.027180    6.982672    -12.970591    19.641060    0.000000    0.000000    0.000000    -9.708209    -3.914049    -2.783886    3.167628    59.760315    -8.619701    9.892780    3.273822    6.226832    0.000000    0.000000    0.000000    
0.729946    0.875918    -0.447677    10.334525    6.550265    126.672081    -1.698439    3.828887    3.370838    -1.544071    11.012738    1.253593    -0.691563    12.140429    1.009360    1.516238    -2.364593    1.324516    -17.610720    31.337925    3.697391    -29.320574    29.865343    -44.581314    -15.400066    -40.954700    -52.586021    14.783421    -43.373985    32.982456    7.589821    25.138430    13.163357    28.369274    34.867908    43.498825    14.151143    -17.437029    62.668644    10.374784    -26.831516    -16.221310    1.802191    -6.761118    1.374560    -6.859131    26.175922    -0.088256    6.960857    -13.059159    19.675072    0.000000    0.000000    0.000000    -9.162293    -5.470117    -2.630882    4.034902    59.638466    -7.941736    9.350442    3.907926    2.507374    0.000000    0.000000    0.000000    
